# xmcd
#
# Track frame offsets:
#	150
#	17045
#	30795
#	44503
#	57873
#	72093
#	87965
#	103815
#	122215
#	136383
#	150828
#	165770
#
# Disc length: 2437
#
# Revision: 2
# Processed by: cddbd v1.5.1PL0 Copyright (c) Steve Scherf et al.
# Submitted via: EasyCDDAExtractor 6.0.0.1
# Normalized: r1:DSETVAR1
#
DISCID=8a09830c
DTITLE=Various Artist - CDX Volume 37 July 1992
DYEAR=1992
DGENRE=Country
TTITLE0=Mark Collie - Even the Man in the Moon is Cryin
TTITLE1=Cooter Daniel - Farmer's Rap
TTITLE2=Billy Joe Royal - Funny How Time Slips Away
TTITLE3=Geezinlaw - Help, I'm White and I Can't Get Down
TTITLE4=Randy Travis - If I Didn't Have You
TTITLE5=Matthews, Wright and King - Mother's Eyes
TTITLE6=Joe Diffie - Next Thing Smokin
TTITLE7=Karen Tobin - Picture of Your Daddy
TTITLE8=John Anderson - Seminole Wind
TTITLE9=Pam Tillis - Shake the Sugar Tree
TTITLE10=Reba McEntire - The Greatest Man I Never Knew
TTITLE11=The Mavericks - This Broken Heart
EXTD=
EXTT0=
EXTT1=
EXTT2=
EXTT3=
EXTT4=
EXTT5=
EXTT6=
EXTT7=
EXTT8=
EXTT9=
EXTT10=
EXTT11=
PLAYORDER=
